# xmcd
#
# Track frame offsets: 
#        150
#        16327
#        33058
#        48868
#        60256
#        78732
#        119956
#        135351
#        147887
#        162499
#        175108
#        184803
#        199505
#        215335
#        226361
#        236964
#        250604
#        263352
#
# Disc length: 3773 seconds
#
# Revision: 1
# Processed by: cddbd v1.5.2PL0 Copyright (c) Steve Scherf et al.
# Submitted via: ExactAudioCopy v0.95b4
#
DISCID=ee0ebb12
DTITLE=Various Artist - De Mooiste Levensliedjes Vol. 4 [CD1)
DYEAR=2008
DGENRE=Nederlandstalig
TTITLE0=Laura Lynn and Frans Bauer - Al Duurt De Nacht Tot Morgenvroeg
TTITLE1=Jannes - Ga Dan
TTITLE2=Lindsay  - Van 's Morgens Vroeg Tot 's Avonds Laat
TTITLE3=Christoff - Droog Nu Je Tranen
TTITLE4=Corry Konings - Mooi Was Die Tijd
TTITLE5=Koos Alberts - Tulpen Uit Amsterdam
TTITLE6=Wendy Van Wanten - Acropolis Adieu
TTITLE7=Willy Sommers - Weet Je Nog Die Slow
TTITLE8=John Terra - Iemand Heeft Je Pijn Gedaan
TTITLE9=Gert Timmerman - Ik Heb Eerbied Voor Jouw Grijze Haren
TTITLE10=Jo Leemans - Weet Je Nog Wel Die Avond In De Regen
TTITLE11=Vader Abraham and Wesley - Het Moederlied
TTITLE12=Jantje Smit - Eens Zit Het Leven Je Weer Mee
TTITLE13=Willeke Alberti - Spiegelbeeld
TTITLE14=Imca Marina - Harlekino
TTITLE15=Roy Miner and Ben Cramer - Mallemolen
TTITLE16=Marianne Weber and Johnny Hoes - Er Drijven Rozen Op De Golven
TTITLE17=Jo Vally - Ik Kan Niet Zonder Jou
EXTD=
EXTT0=
EXTT1=
EXTT2=
EXTT3=
EXTT4=
EXTT5=
EXTT6=
EXTT7=
EXTT8=
EXTT9=
EXTT10=
EXTT11=
EXTT12=
EXTT13=
EXTT14=
EXTT15=
EXTT16=
EXTT17=
PLAYORDER=
